<svg xmlns="http://www.w3.org/2000/svg" width="42" height="34.704" viewBox="0 0 42 34.704"><g transform="translate(0.294 1.415)"><g transform="translate(0 0)"><ellipse cx="7.288" cy="7.327" rx="7.288" ry="7.327" transform="translate(0 14.51) rotate(-69.731)" fill="#f86464"/><ellipse cx="5.286" cy="5.315" rx="5.286" ry="5.315" transform="matrix(0.6, -0.8, 0.8, 0.6, 26.858, 12.75)" fill="#f86464"/><path d="M454.279,893.387a6.1,6.1,0,0,1-4.592-1.208H433.54a8.089,8.089,0,0,1-6.909,1.528v2.966H456.8v-4.248A6.1,6.1,0,0,1,454.279,893.387Z" transform="translate(-419.155 -875.586)" fill="#61c4f2"/><ellipse cx="4.612" cy="4.636" rx="4.612" ry="4.636" transform="translate(18.225 2.381) rotate(-14.958)" fill="#61c4f2"/></g></g><g transform="translate(10.429 25.024)"><path d="M443.485,919.982h-6.2a.5.5,0,0,1,0-1h6.2a.5.5,0,0,1,0,1Z" transform="translate(-436.789 -918.979)" fill="#263357"/></g><g transform="translate(10.483 27.075)"><path d="M446.038,927.815h-8.545a.5.5,0,0,1,0-1h8.545a.5.5,0,0,1,0,1Z" transform="translate(-436.995 -926.813)" fill="#263357"/></g><g transform="translate(7.335 17.794)"><path d="M453.624,906.138H427.811a2.85,2.85,0,0,1-2.839-2.854v-9.642a.493.493,0,1,1,.986,0v9.642a1.86,1.86,0,0,0,1.853,1.863h25.813a1.86,1.86,0,0,0,1.854-1.863V891.857a.493.493,0,1,1,.986,0v11.427A2.85,2.85,0,0,1,453.624,906.138Z" transform="translate(-424.972 -891.362)" fill="#263357"/></g><g transform="translate(16.74 14.541)"><path d="M472.421,879.927H461.39a.5.5,0,0,1,0-.991h11.031a.5.5,0,0,1,0,.991Z" transform="translate(-460.897 -878.935)" fill="#263357"/></g><g transform="translate(28.166 23.589)"><rect width="1.695" height="1.136" transform="translate(0 1.704)" fill="#263357"/><path d="M506.406,914.634V913.5h-.282a1.438,1.438,0,0,0-1.352,1.136Z" transform="translate(-504.711 -913.498)" fill="#263357"/><rect width="1.695" height="1.136" transform="translate(0 3.408)" fill="#263357"/><path d="M504.807,933.024a1.434,1.434,0,0,0,1.343,1.1h.282v-1.1Z" transform="translate(-504.738 -927.912)" fill="#263357"/><g transform="translate(2.26)"><rect width="1.695" height="1.136" transform="translate(2.825 1.704)" fill="#263357"/><rect width="1.695" height="1.136" transform="translate(2.825 3.408)" fill="#263357"/><path d="M523.964,933.024v1.1h.282a1.434,1.434,0,0,0,1.343-1.1Z" transform="translate(-521.139 -927.912)" fill="#263357"/><path d="M515.433,918.61v-3.976h2.2a1.438,1.438,0,0,0-1.352-1.136h-3.107v6.214h2.26Z" transform="translate(-513.174 -913.498)" fill="#263357"/></g></g><path d="M421.571,952.627a.5.5,0,1,1-.5-.5A.5.5,0,0,1,421.571,952.627Z" transform="translate(-414.39 -918.424)" fill="#263357"/><g transform="translate(8.182 33.661)"><path d="M457.189,952.971H428.706a.5.5,0,0,1,0-1h28.483a.5.5,0,0,1,0,1Z" transform="translate(-428.208 -951.969)" fill="#263357"/></g><g transform="translate(2.688 31.506)"><path d="M414.148,944.741h-6.43a.5.5,0,0,1,0-1h6.43a.5.5,0,0,1,0,1Z" transform="translate(-407.219 -943.739)" fill="#263357"/></g><g transform="translate(36.131 31.506)"><path d="M539.516,944.741h-4.047a.5.5,0,0,1,0-1h4.047a.5.5,0,0,1,0,1Z" transform="translate(-534.97 -943.739)" fill="#263357"/></g><g transform="translate(22.297 3.646)"><g transform="translate(1.418 5.633)"><path d="M488.04,860.179h-.029a.5.5,0,0,1-.469-.529l.02-.344a.5.5,0,1,1,1,.057l-.019.344A.5.5,0,0,1,488.04,860.179Z" transform="translate(-487.541 -858.833)" fill="#fff"/></g><g transform="translate(1.558)"><path d="M488.574,838.685h-.029a.5.5,0,0,1-.469-.529l.021-.366a.5.5,0,1,1,1,.057l-.021.366A.5.5,0,0,1,488.574,838.685Z" transform="translate(-488.075 -837.317)" fill="#fff"/></g><g transform="translate(0 0.534)"><path d="M484.087,845.222a2.471,2.471,0,0,1-1.85-.916.5.5,0,0,1,.069-.705.5.5,0,0,1,.7.069,1.49,1.49,0,0,0,1.08.549h.017c.3,0,.828-.132.956-.455a.8.8,0,0,0-.133-.717c-.181-.244-.459-.307-.9-.39a1.966,1.966,0,0,1-1.445-.777,1.675,1.675,0,0,1-.111-1.6,1.86,1.86,0,0,1,1.913-.907,2.126,2.126,0,0,1,1.439.884.5.5,0,0,1-.115.7.5.5,0,0,1-.7-.116,1.147,1.147,0,0,0-.75-.473.905.905,0,0,0-.894.348.678.678,0,0,0,.049.622c.132.2.375.259.793.338a2.2,2.2,0,0,1,1.512.774,1.793,1.793,0,0,1,.261,1.687,1.989,1.989,0,0,1-1.867,1.087Z" transform="translate(-482.124 -839.355)" fill="#fff"/></g></g><g transform="translate(20.307)"><path d="M483.487,826.9a.492.492,0,0,1-.4-.2,5.561,5.561,0,0,0-7.784-1.246.491.491,0,0,1-.689-.111.5.5,0,0,1,.11-.692,6.544,6.544,0,0,1,9.161,1.467.5.5,0,0,1-.11.692A.49.49,0,0,1,483.487,826.9Z" transform="translate(-474.522 -823.389)" fill="#61c4f2"/></g><g transform="translate(0 1.836)"><path d="M399.2,846.078a.5.5,0,0,1-.4-.207,9.686,9.686,0,0,1-1.662-3.851,9.8,9.8,0,0,1,4.629-10.3A9.719,9.719,0,0,1,406.1,830.4a.5.5,0,0,1,.058,1,8.774,8.774,0,0,0-6.555,13.877.5.5,0,0,1-.111.7A.492.492,0,0,1,399.2,846.078Z" transform="translate(-396.952 -830.404)" fill="#f86464"/></g><g transform="translate(5.97 8.011)"><g transform="translate(0.88)"><path d="M423.607,861.82a.489.489,0,0,1-.265-.078.5.5,0,0,1-.149-.683l4.357-6.842a.491.491,0,0,1,.68-.15.5.5,0,0,1,.149.683l-4.357,6.842A.491.491,0,0,1,423.607,861.82Z" transform="translate(-423.116 -853.989)" fill="#fff"/></g><g transform="translate(0 0.292)"><path d="M421.326,858.263a1.579,1.579,0,1,1,1.571-1.579A1.577,1.577,0,0,1,421.326,858.263Zm0-2.169a.59.59,0,1,0,.587.59A.589.589,0,0,0,421.326,856.094Z" transform="translate(-419.755 -855.105)" fill="#fff"/></g><g transform="translate(3.951 4.297)"><path d="M436.417,873.562a1.579,1.579,0,1,1,1.571-1.579A1.577,1.577,0,0,1,436.417,873.562Zm0-2.169a.59.59,0,1,0,.587.59A.589.589,0,0,0,436.417,871.393Z" transform="translate(-434.846 -870.404)" fill="#fff"/></g></g><g transform="translate(33.929 5.46)"><path d="M533.914,850.487a.5.5,0,0,1-.493-.43,5.564,5.564,0,0,0-2.171-3.685,5.507,5.507,0,0,0-4.126-1.068.5.5,0,0,1-.141-.992,6.578,6.578,0,0,1,7.424,5.6.5.5,0,0,1-.423.567A.481.481,0,0,1,533.914,850.487Z" transform="translate(-526.556 -844.245)" fill="#f86464"/></g><g transform="translate(32.589 9.391)"><g transform="translate(1.695)"><path d="M528.414,860.685H528.4a.5.5,0,0,1-.48-.519l.016-.422a.5.5,0,1,1,1,.037l-.016.422A.5.5,0,0,1,528.414,860.685Z" transform="translate(-527.916 -859.26)" fill="#fff"/></g><g transform="translate(0 0.616)"><path d="M523.6,868.219a2.782,2.782,0,0,1-2.042-.985.5.5,0,0,1,.054-.707.5.5,0,0,1,.7.054,1.793,1.793,0,0,0,1.337.634c.381-.014,1.005-.183,1.159-.6a.994.994,0,0,0-.181-.9,1.6,1.6,0,0,0-1.091-.456,2.2,2.2,0,0,1-1.632-.828,1.878,1.878,0,0,1-.158-1.77,2.067,2.067,0,0,1,2.106-1.045,2.373,2.373,0,0,1,1.625.954.5.5,0,0,1-.1.7.5.5,0,0,1-.7-.1,1.4,1.4,0,0,0-.928-.558,1.121,1.121,0,0,0-1.1.465.863.863,0,0,0,.076.79c.174.257.483.321.972.4a2.472,2.472,0,0,1,1.713.829,1.989,1.989,0,0,1,.328,1.864,2.216,2.216,0,0,1-2.058,1.246Z" transform="translate(-521.44 -861.612)" fill="#fff"/></g><g transform="translate(1.695 6.487)"><path d="M528.414,885.465H528.4a.5.5,0,0,1-.48-.519l.016-.422a.5.5,0,1,1,1,.037l-.016.422A.5.5,0,0,1,528.414,885.465Z" transform="translate(-527.916 -884.041)" fill="#fff"/></g></g><path d="M553.82,872.947a.49.49,0,0,1-.69-.084.5.5,0,0,1,.084-.694.49.49,0,0,1,.69.084A.5.5,0,0,1,553.82,872.947Z" transform="translate(-512.167 -859.321)" fill="#f86464"/><path d="M.466,0h0A.466.466,0,0,1,.933.466V.472A.466.466,0,0,1,.467.938h0A.467.467,0,0,1,0,.471v0A.466.466,0,0,1,.466,0Z" transform="translate(3.679 17.923) rotate(42.733)" fill="#f86464"/><path d="M510.5,840.444a.49.49,0,0,1-.69-.085.5.5,0,0,1,.084-.694.49.49,0,0,1,.69.085A.5.5,0,0,1,510.5,840.444Z" transform="translate(-480.19 -835.327)" fill="#61c4f2"/></svg>