<svg xmlns="http://www.w3.org/2000/svg" width="40" height="34.839" viewBox="0 0 40 34.839"><path d="M207.782,377.477a7.465,7.465,0,0,1-2.9,5.854c-1.808,1.176-4.7.976-6.453.976-1.843,0-4.358.541-6.453-.65-2.16-1.228-3.872-4.213-3.872-5.854a9.8,9.8,0,0,1,2.259-6.179c.968-1.3,3.478-2.906,4.195-4.228.7-1.3.64-2.693.968-3.9-.968-.325-3.227-3.578-2.259-3.578h8.712c.937,0,0,1.951-1.613,3.9a27.992,27.992,0,0,0,1.613,4.553c1.008,1.8,2.818,2.195,3.872,3.578A10.761,10.761,0,0,1,207.782,377.477Z" transform="translate(-178.43 -350.298)" fill="#f86464"/><path d="M169.644,419.19c-.271.708-2.129-.121-3.066-.91-.906-.763-1.359-2.582-.889-3.175C167.784,415.8,169.55,416.748,169.644,419.19Z" transform="translate(-161.482 -391.687)" fill="#61c4f2"/><path d="M159.084,439.615a8.435,8.435,0,0,0-6.3-.558,8.28,8.28,0,0,0,3.4,3.91,6.865,6.865,0,0,0,5.627-.086A5.234,5.234,0,0,0,159.084,439.615Z" transform="translate(-151.946 -409.376)" fill="#61c4f2"/><g transform="translate(4.327 29.633)"><path d="M171.935,444.438a.485.485,0,0,1-.471-.377,3.308,3.308,0,0,0-2.217-2.656,5.961,5.961,0,0,0-2.054-.467.488.488,0,0,1,.046-.974,6.91,6.91,0,0,1,2.384.542,4.294,4.294,0,0,1,2.784,3.334.488.488,0,0,1-.362.585A.474.474,0,0,1,171.935,444.438Z" transform="translate(-166.732 -439.963)" fill="#263357"/></g><g transform="translate(0 27.32)"><path d="M156.147,438.232c-.093,0-.187,0-.282-.007a6.469,6.469,0,0,1-4.14-1.82,7.491,7.491,0,0,1-2.293-4.625.489.489,0,0,1,.329-.516,8.871,8.871,0,0,1,6.647.213h0a5.352,5.352,0,0,1,2.106,1.7,5.609,5.609,0,0,1,.926,3.889.488.488,0,0,1-.25.372A6.38,6.38,0,0,1,156.147,438.232Zm-5.7-6.162a6.433,6.433,0,0,0,1.927,3.614,5.531,5.531,0,0,0,3.532,1.567,5.425,5.425,0,0,0,2.593-.549,4.547,4.547,0,0,0-.773-2.949,4.409,4.409,0,0,0-1.751-1.4A7.718,7.718,0,0,0,150.45,432.07Z" transform="translate(-149.429 -430.714)" fill="#263357"/></g><g transform="translate(3.618 21.996)"><path d="M168.337,415.98l-.046,0c-.109-.01-2.677-.276-3.8-1.993s-.3-4.136-.268-4.238a.478.478,0,0,1,.5-.323c.108.01,2.677.276,3.8,1.993s.3,4.137.268,4.238A.484.484,0,0,1,168.337,415.98Zm-3.312-5.522a4.055,4.055,0,0,0,.271,2.989,4.28,4.28,0,0,0,2.692,1.5,4.055,4.055,0,0,0-.271-2.989h0A4.279,4.279,0,0,0,165.025,410.459Z" transform="translate(-163.895 -409.421)" fill="#263357"/></g><g transform="translate(5.745 24.788)"><path d="M175.329,426.264a.485.485,0,0,1-.472-.384,11.745,11.745,0,0,0-2.34-4.489.49.49,0,0,1,.057-.687.481.481,0,0,1,.682.058,12.509,12.509,0,0,1,2.547,4.911.488.488,0,0,1-.37.58A.466.466,0,0,1,175.329,426.264Z" transform="translate(-172.402 -420.588)" fill="#263357"/></g><path d="M217.532,410.84a5.358,5.358,0,1,1-5.161-5.592A5.376,5.376,0,0,1,217.532,410.84Z" transform="translate(-192.468 -384.293)" fill="#fff"/><g transform="translate(19.211 29.081)"><path d="M226.738,439.128h-.018a.486.486,0,0,1-.466-.505l.014-.4a.492.492,0,0,1,.5-.47.487.487,0,0,1,.466.505l-.014.4A.486.486,0,0,1,226.738,439.128Z" transform="translate(-226.254 -437.756)" fill="#f86464"/></g><g transform="translate(19.089 22.452)"><path d="M226.249,412.642h-.017a.486.486,0,0,1-.467-.5l.015-.422a.484.484,0,1,1,.967.035l-.015.422A.486.486,0,0,1,226.249,412.642Z" transform="translate(-225.765 -411.244)" fill="#f86464"/></g><g transform="translate(17.405 23.067)"><path d="M221.17,420.275a2.748,2.748,0,0,1-2.021-.978.49.49,0,0,1,.053-.688.481.481,0,0,1,.682.054,1.781,1.781,0,0,0,1.341.635c.384-.014,1.01-.185,1.165-.6a1.006,1.006,0,0,0-.183-.906,1.6,1.6,0,0,0-1.093-.459,2.182,2.182,0,0,1-1.617-.82,1.866,1.866,0,0,1-.158-1.755,2.048,2.048,0,0,1,2.084-1.038,2.354,2.354,0,0,1,1.61.946.491.491,0,0,1-.1.683.482.482,0,0,1-.678-.1,1.4,1.4,0,0,0-.933-.561,1.128,1.128,0,0,0-1.106.473.878.878,0,0,0,.078.8c.176.26.485.324.976.407a2.448,2.448,0,0,1,1.7.821,1.976,1.976,0,0,1,.327,1.848,2.194,2.194,0,0,1-2.037,1.237Z" transform="translate(-219.032 -413.704)" fill="#f86464"/></g><g transform="translate(14.005)"><path d="M208.682,329.449a.486.486,0,0,1-.484-.488v-3.74h-2.28a.486.486,0,0,1-.484-.488c0-1.063,0-3.274,1.866-3.274,1.133,0,1.866.875,1.866,2.229v5.273A.486.486,0,0,1,208.682,329.449Zm-2.273-5.2H208.2v-.557c0-.468-.116-1.253-.9-1.253C206.638,322.434,206.445,323.091,206.409,324.245Z" transform="translate(-205.434 -321.459)" fill="#263357"/></g><g transform="translate(16.123 0.184)"><path d="M235.686,348.865a.486.486,0,0,1-.484-.488V325.122a1.944,1.944,0,0,0-1.934-1.95H214.391a.488.488,0,0,1,0-.976h18.877a2.917,2.917,0,0,1,2.9,2.925v23.256A.486.486,0,0,1,235.686,348.865Z" transform="translate(-213.907 -322.196)" fill="#263357"/></g><g transform="translate(29.675 26.203)"><path d="M268.584,430.148a.488.488,0,0,1,0-.976h7.179c.627-.012,1.694-.2,1.694-1.342v-.61h-7.582a.488.488,0,0,1,0-.976h8.066a.486.486,0,0,1,.484.488v1.1c0,1.4-1.017,2.286-2.653,2.317Z" transform="translate(-268.1 -426.245)" fill="#263357"/></g><g transform="translate(19.995 4.087)"><path d="M240.844,346.584a.483.483,0,0,1-.413-.234l-3.278-5.407-1.835,1.322a.481.481,0,0,1-.607-.036l-3.147-2.883-1.3,1.83a.482.482,0,0,1-.675.113.491.491,0,0,1-.113-.681l1.613-2.277a.482.482,0,0,1,.72-.078l3.26,2.988,1.941-1.4a.482.482,0,0,1,.694.143l3.032,5,2.555-6.869a.482.482,0,0,1,.623-.285.488.488,0,0,1,.283.628l-2.9,7.806a.485.485,0,0,1-.407.314Z" transform="translate(-229.39 -337.802)" fill="#61c4f2"/></g><g transform="translate(24.835 15.145)"><path d="M258.586,383h-9.357a.488.488,0,0,1,0-.976h9.357a.488.488,0,0,1,0,.976Z" transform="translate(-248.745 -382.024)" fill="#263357"/></g><g transform="translate(28.707 18.072)"><path d="M270.2,394.706h-5.485a.488.488,0,0,1,0-.976H270.2a.488.488,0,0,1,0,.976Z" transform="translate(-264.229 -393.73)" fill="#263357"/></g><path d="M285.761,456a.555.555,0,1,0,.513.554A.535.535,0,0,0,285.761,456Z" transform="translate(-251.285 -422.357)" fill="#263357"/><g transform="translate(14.187 8.966)"><path d="M208.907,362.191a.48.48,0,0,1-.3-.1l-.124-.1a6.465,6.465,0,0,1-1.6-1.656,6.687,6.687,0,0,1-.713-2.465.492.492,0,0,1,.113-.389.482.482,0,0,1,.366-.168h7.421a.488.488,0,0,1,0,.976h-6.852a4.74,4.74,0,0,0,.487,1.532,5.533,5.533,0,0,0,1.372,1.4l.129.1a.49.49,0,0,1,.082.685A.483.483,0,0,1,208.907,362.191Z" transform="translate(-206.164 -357.313)" fill="#263357"/></g><g transform="translate(21.286 8.966)"><path d="M235.035,362.191a.483.483,0,0,1-.381-.187.49.49,0,0,1,.082-.685l.129-.1a5.535,5.535,0,0,0,1.372-1.4,5.933,5.933,0,0,0,.578-2.089.484.484,0,1,1,.958.139,6.684,6.684,0,0,1-.713,2.464,6.463,6.463,0,0,1-1.6,1.657l-.123.1A.481.481,0,0,1,235.035,362.191Z" transform="translate(-234.551 -357.312)" fill="#263357"/></g><g transform="translate(9.333 12.869)"><path d="M194.993,394.711a8.626,8.626,0,0,1-6.8-2.878,8.329,8.329,0,0,1-1.125-7.022c.805-2.8,2.728-4.678,4.685-6.29a5.643,5.643,0,0,0,2.115-4.342v-.771a.484.484,0,1,1,.968,0v.771a6.617,6.617,0,0,1-2.47,5.1,11.99,11.99,0,0,0-4.368,5.807,7.386,7.386,0,0,0,.953,6.142,7.663,7.663,0,0,0,6.046,2.51.488.488,0,0,1,0,.976Z" transform="translate(-186.75 -372.92)" fill="#263357"/></g><g transform="translate(9.993 9.616)"><path d="M192.133,364.467a.482.482,0,0,1-.216-.051,4.5,4.5,0,0,1-2.526-4.014.486.486,0,0,1,.484-.488h2.259a.488.488,0,0,1,0,.976h-1.739a3.558,3.558,0,0,0,1.956,2.653.49.49,0,0,1,.217.655A.484.484,0,0,1,192.133,364.467Z" transform="translate(-189.391 -359.914)" fill="#263357"/></g><g transform="translate(7.146 13.194)"><path d="M178.491,383.041a.479.479,0,0,1-.3-.105.491.491,0,0,1-.079-.686A18.787,18.787,0,0,1,181,379.4a6.362,6.362,0,0,0,2.115-4.7.484.484,0,1,1,.968,0,7.287,7.287,0,0,1-2.47,5.451,17.845,17.845,0,0,0-2.74,2.7A.481.481,0,0,1,178.491,383.041Z" transform="translate(-178.007 -374.221)" fill="#263357"/></g><g transform="translate(20.963 12.869)"><path d="M233.745,394.711a.488.488,0,0,1,0-.976,7.584,7.584,0,0,0,6-2.509,7.434,7.434,0,0,0,.946-6.144,11.98,11.98,0,0,0-4.337-5.807,8.226,8.226,0,0,1-2.452-5.867.484.484,0,1,1,.968,0,7.384,7.384,0,0,0,2.1,5.114,12.846,12.846,0,0,1,4.652,6.29,8.377,8.377,0,0,1-1.118,7.02A8.547,8.547,0,0,1,233.745,394.711Z" transform="translate(-233.261 -372.92)" fill="#263357"/></g><g transform="translate(16.769 12.869)"><path d="M221.488,373.9h-4.517a.488.488,0,0,1,0-.976h4.517a.488.488,0,0,1,0,.976Z" transform="translate(-216.487 -372.92)" fill="#263357"/></g><g transform="translate(9.993 33.683)"><path d="M211.493,457.135H189.875a.488.488,0,0,1,0-.976h21.618a.488.488,0,0,1,0,.976Z" transform="translate(-189.391 -456.159)" fill="#263357"/></g></svg>