<svg xmlns="http://www.w3.org/2000/svg" width="70" height="69.557" viewBox="0 0 70 69.557"><path d="M1849.3,763.358V787.6a2.9,2.9,0,0,0-1-.175H1845.3V763.358Z" transform="translate(-1791.276 -756.652)" fill="#61c4f2"/><path d="M1681.764,1018.448c.035.035.058.074.093.1h-30.321v-2.993h27.892c.225.339.469.673.724,1,.264.344.544.673.838,1C1681.265,1017.864,1681.464,1018.154,1681.764,1018.448Z" transform="translate(-1640.432 -952.985)" fill="#61c4f2"/><g transform="translate(13.102 12.692)"><path d="M1670.531,800.107a.247.247,0,0,1-.249.249H1662.8a.247.247,0,0,1-.25-.249v-7.482a.247.247,0,0,1,.25-.249h7.127l1.073-1.287a1.9,1.9,0,0,1,.444-.384,2.234,2.234,0,0,0-1.158-.324H1662.8a2.249,2.249,0,0,0-2.246,2.245v7.482a2.249,2.249,0,0,0,2.246,2.245h7.487a2.249,2.249,0,0,0,2.246-2.245v-4.629l-2,2.394Z" transform="translate(-1660.549 -790.38)" fill="#f86464"/></g><path d="M1670.531,867.661a.247.247,0,0,1-.249.249H1662.8a.247.247,0,0,1-.25-.249v-7.482a.247.247,0,0,1,.25-.249h7.132l1.068-1.277a1.854,1.854,0,0,1,.449-.389,2.209,2.209,0,0,0-1.163-.329H1662.8a2.249,2.249,0,0,0-2.246,2.245v7.482a2.249,2.249,0,0,0,2.246,2.245h7.487a2.249,2.249,0,0,0,2.246-2.245v-4.619l-2,2.394Z" transform="translate(-1647.447 -830.277)" fill="#f86464"/><g transform="translate(13.102 42.621)"><path d="M1670.282,937.459H1662.8a2.248,2.248,0,0,1-2.246-2.245v-7.482a2.248,2.248,0,0,1,2.246-2.245h7.487a2.248,2.248,0,0,1,2.246,2.245v7.482A2.248,2.248,0,0,1,1670.282,937.459Zm-7.487-9.976a.25.25,0,0,0-.25.25v7.482a.25.25,0,0,0,.25.249h7.487a.25.25,0,0,0,.249-.249v-7.482a.25.25,0,0,0-.249-.25Z" transform="translate(-1660.549 -925.487)" fill="#61c4f2"/></g><g transform="translate(53.03 40.626)"><path d="M1842.795,917.478v2a1,1,0,0,1-2,0v-2a1,1,0,0,1,.9-.993.643.643,0,0,1,.1,0,.653.653,0,0,1,.1,0A1,1,0,0,1,1842.795,917.478Z" transform="translate(-1840.799 -916.48)" fill="#61c4f2"/></g><g transform="translate(53.03 60.578)"><path d="M1841.8,1010.542a1,1,0,0,1-1-1v-2a1,1,0,0,1,2,0v2A1,1,0,0,1,1841.8,1010.542Z" transform="translate(-1840.799 -1006.552)" fill="#61c4f2"/></g><g transform="translate(42.05 51.6)"><path d="M1795.223,967.017a1,1,0,0,1-1,1h-2a1,1,0,0,1-.993-.9.975.975,0,0,1,0-.2,1,1,0,0,1,.993-.9h2A1,1,0,0,1,1795.223,967.017Z" transform="translate(-1791.23 -966.02)" fill="#61c4f2"/></g><g transform="translate(62.014 51.6)"><path d="M1884.349,968.015h-2a1,1,0,1,1,0-2h2a1,1,0,1,1,0,2Z" transform="translate(-1881.355 -966.02)" fill="#61c4f2"/></g><ellipse cx="1.123" cy="1.122" rx="1.123" ry="1.122" transform="translate(62.888 18.691)" fill="#263357"/><ellipse cx="1.123" cy="1.122" rx="1.123" ry="1.122" transform="translate(0 31.661)" fill="#263357"/><path d="M1664.438,808.724c-.3-.294-.589-.594-.864-.9h-28.579v-1h27.74c-.255-.324-.5-.658-.724-1s-.434-.658-.629-1H1631V747.963h44.92V773.9h2V750.956h2V773.9a2.9,2.9,0,0,1,1,.175,2.739,2.739,0,0,1,1,.594V749.958a1,1,0,0,0-1-1h-2.995v-2a1,1,0,0,0-1-1H1630a1,1,0,0,0-1,1v58.86a1,1,0,0,0,1,1H1633v2a1,1,0,0,0,1,1h31.678c-.389-.314-.769-.643-1.133-1C1664.507,808.788,1664.472,808.759,1664.438,808.724Z" transform="translate(-1622.891 -743.114)" fill="#263357"/><path d="M1729.141,802.006h17.968a1,1,0,1,0,0-2h-17.968a1,1,0,1,0,0,2Z" transform="translate(-1700.068 -785.185)" fill="#263357"/><path d="M1729.141,829.027h17.968a1,1,0,1,0,0-2h-17.968a1,1,0,1,0,0,2Z" transform="translate(-1700.068 -806.221)" fill="#263357"/><path d="M1749.105,868.562a1,1,0,0,0-1-1h-18.966a1,1,0,1,0,0,2h18.966A1,1,0,0,0,1749.105,868.562Z" transform="translate(-1700.068 -837.774)" fill="#263357"/><path d="M1742.118,895.584a1,1,0,0,0-1-1h-11.979a1,1,0,1,0,0,2h11.979A1,1,0,0,0,1742.118,895.584Z" transform="translate(-1700.068 -858.81)" fill="#263357"/><path d="M1738,935.118h-8.859a1,1,0,1,0,0,2h8.016A17.169,17.169,0,0,1,1738,935.118Z" transform="translate(-1700.068 -890.364)" fill="#263357"/><path d="M1728.143,958.634a1,1,0,0,0,1,1h7.022a15.382,15.382,0,0,1,.219-2h-7.242A1,1,0,0,0,1728.143,958.634Z" transform="translate(-1700.068 -907.894)" fill="#263357"/><path d="M1607.895,922.888a5.012,5.012,0,0,1-3.93-4.872V891.08a1,1,0,0,0-2,0v26.936a7.019,7.019,0,0,0,5.5,6.822,1,1,0,0,0,1.188-.764A1,1,0,0,0,1607.895,922.888Z" transform="translate(-1601.843 -855.304)" fill="#263357"/><path d="M1865.354,735.056a5.013,5.013,0,0,1,3.93,4.873V749.9a1,1,0,0,0,2,0v-9.976a7.02,7.02,0,0,0-5.5-6.822,1,1,0,1,0-.423,1.95Z" transform="translate(-1806.272 -733.084)" fill="#263357"/><path d="M1682.7,862.279a1.035,1.035,0,0,0-.424.3l-1.228,1.476-3.06,3.671-1.472-1.471-.754-.748a1,1,0,0,0-1.408,1.407l2.995,2.993a.981.981,0,0,0,.7.294h.045a1.017,1.017,0,0,0,.724-.359l2.226-2.669,2-2.394.769-.923a1,1,0,0,0-.13-1.407A1.013,1.013,0,0,0,1682.7,862.279Z" transform="translate(-1657.967 -833.614)" fill="#263357"/><path d="M1683.686,794.919a1,1,0,0,0-.988-.165.936.936,0,0,0-.419.294l-1.228,1.477-3.06,3.671-1.472-1.471-.754-.753a1,1,0,1,0-1.408,1.412l2.995,2.993a.981.981,0,0,0,.7.294h.045a1.017,1.017,0,0,0,.724-.359l2.226-2.669,2-2.394.769-.923A1,1,0,0,0,1683.686,794.919Z" transform="translate(-1657.967 -781.042)" fill="#263357"/><path d="M1841.063,935.411l-4.992,4.989a3.148,3.148,0,0,0-.292-.124,3.018,3.018,0,0,0-1-.169,2.9,2.9,0,0,0-1,.175,2.988,2.988,0,0,0,0,5.637,2.941,2.941,0,0,0,2,0,2.983,2.983,0,0,0,2-2.818,2.944,2.944,0,0,0-.293-1.289l4.992-4.989a1,1,0,0,0-1.412-1.411Z" transform="translate(-1780.752 -890.364)" fill="#263357"/><path d="M1801.789,891.251l1.073-1.078a.99.99,0,0,0,0-1.411l-1.407-1.407a1.007,1.007,0,0,0-.709-.294,1,1,0,0,0-.7.294l-1.078,1.073a15.916,15.916,0,0,0-4.792-2.549c-.329-.11-.664-.21-1-.294s-.659-.16-1-.224-.658-.115-1-.155v-1.137h1a1,1,0,0,0,1-1v-1a1,1,0,0,0-1-1h-5.989a1,1,0,0,0-1,1v1a1,1,0,0,0,1,1h1v1.137a15.96,15.96,0,0,0-11.829,7.841,14.447,14.447,0,0,0-.979,2,15.1,15.1,0,0,0-.883,2.993,13.848,13.848,0,0,0-.25,2,15.514,15.514,0,0,0,.02,2.31,15.707,15.707,0,0,0,2.74,7.667c.235.344.484.673.749,1,.274.344.564.678.873,1a14.206,14.206,0,0,0,1.043,1,13.421,13.421,0,0,0,1.258,1,15.121,15.121,0,0,0,1.567,1,15.779,15.779,0,0,0,6.873,1.975c.275.015.544.02.813.02a15.944,15.944,0,0,0,12.608-25.739ZM1794.172,913c-.324.135-.659.259-1,.364A12.871,12.871,0,0,1,1782.269,912a11.788,11.788,0,0,1-1.377-1,12.66,12.66,0,0,1-1.073-1,12.957,12.957,0,0,1-3.609-8.66v-.04c0-.095,0-.185,0-.28,0-.334.015-.668.04-1a12.4,12.4,0,0,1,.3-1.935,12.968,12.968,0,0,1,11.639-10c.329-.025.664-.04,1-.04.095,0,.185,0,.28.005h.045c.229.005.449.015.674.035a12.509,12.509,0,0,1,2,.309c.339.08.669.175,1,.279s.674.229,1,.369a12.97,12.97,0,0,1,0,23.948Z" transform="translate(-1735.153 -848.292)" fill="#263357"/></svg>