<svg xmlns="http://www.w3.org/2000/svg" width="48.868" height="70" viewBox="0 0 48.868 70"><g transform="translate(0.01 1.185)"><path d="M812.677,577.98s-2.546,1.963,0,6.933c-6.647-1.793-7.085-6.919-7.085-6.919H792.946a1.876,1.876,0,0,1-1.877-1.874v-13.8a1.876,1.876,0,0,1,1.877-1.875h25.42a1.876,1.876,0,0,1,1.877,1.875v13.8a1.876,1.876,0,0,1-1.877,1.874C818.144,577.994,812.9,578,812.677,577.98Z" transform="translate(-791.069 -560.441)" fill="#f86464"/></g><g transform="translate(16.783 15.743)"><path d="M871.117,618.737v2.679c-.211,0-7.013.008-7.224-.013,0,0-2.431,1.874,0,6.619a9.372,9.372,0,0,1-5.659-3.788V649.6h23.92v-30.86Z" transform="translate(-858.235 -618.737)" fill="#61c4f2"/></g><g transform="translate(46.994 46.827)"><path d="M979.211,744.1a.9.9,0,0,0,1.791,0A.9.9,0,0,0,979.211,744.1Z" transform="translate(-979.211 -743.211)" fill="#263357"/></g><g transform="translate(12.797 49.273)"><path d="M854.862,761.441H847.9c-5.865,0-6.374-5.66-4.99-8.438.138,1.311.588,3.567,2.342,4.829,2.816,2.026,5.144-.282,16.8.966l-2.749,3.456-4.073,2.029A1.441,1.441,0,0,0,854.862,761.441Z" transform="translate(-842.273 -753.003)" fill="#f86464"/></g><g transform="translate(29.364 10.462)"><path d="M922.3,613.532V602.343a2.978,2.978,0,0,0-2.977-2.972H909.5a.891.891,0,0,1,0-1.782h9.826a4.763,4.763,0,0,1,4.762,4.754v11.189A.892.892,0,0,1,922.3,613.532Z" transform="translate(-908.614 -597.589)" fill="#263357"/></g><g transform="translate(33.621 49.817)"><path d="M932.113,765.553h-5.57a.891.891,0,0,1,0-1.782h5.57a7.01,7.01,0,0,0,7.008-7v-.707a.892.892,0,0,1,1.785,0C940.906,762.323,936.475,765.553,932.113,765.553Z" transform="translate(-925.659 -755.185)" fill="#263357"/></g><g transform="translate(12.649 18.489)"><path d="M869.105,667.406H846.441a4.764,4.764,0,0,1-4.762-4.754V630.616a.892.892,0,0,1,1.785,0v32.035a2.978,2.978,0,0,0,2.977,2.972h22.665a2.978,2.978,0,0,0,2.977-2.972v-6.969a.893.893,0,0,1,1.785,0v6.969A4.764,4.764,0,0,1,869.105,667.406Z" transform="translate(-841.679 -629.733)" fill="#263357"/></g><g transform="translate(9.626 9.124)"><g transform="translate(8.887)"><path d="M866.364,594.658a1.212,1.212,0,0,1,0-2.424A1.212,1.212,0,0,1,866.364,594.658Z" transform="translate(-865.161 -592.233)" fill="#263357"/></g><g transform="translate(4.449)"><path d="M848.591,594.658a1.212,1.212,0,0,1,0-2.424A1.212,1.212,0,0,1,848.591,594.658Z" transform="translate(-847.387 -592.233)" fill="#263357"/></g><g transform="translate(0 0.01)"><path d="M832,593.477a1.214,1.214,0,0,1-2.428,0A1.214,1.214,0,0,1,832,593.477Z" transform="translate(-829.572 -592.275)" fill="#263357"/></g></g><g transform="translate(21.039 55.017)"><path d="M875.463,784.744c-.833-1.152,1.268-1.942,3.3-2.779,2.572-1.057,5.486-2.256,7.448-5.52a.892.892,0,0,1,1.531.916c-3.231,5.376-8.736,5.926-11.036,7.584A.893.893,0,0,1,875.463,784.744Z" transform="translate(-875.276 -776.005)" fill="#263357"/></g><g transform="translate(3.713 20.802)"><path d="M808.073,669.534c.33-1.685-.99-5.825-1.625-7.814-.814-2.549-.978-3.462,1.29-9.079,1.214-3.008,2.59-6.416,2.629-10.243a3.213,3.213,0,0,1,2.917-3.4c2.884-.169,4.326,4.068,2.553,4.29a.9.9,0,0,1-1-.774c-.316-2.511-2.669-2.1-2.689-.1-.042,4.164-1.485,7.738-2.759,10.891-2.2,5.447-1.866,5.921-1.244,7.872,1.013,3.176,2.062,6.729,1.676,8.7A.892.892,0,0,1,808.073,669.534Z" transform="translate(-805.898 -638.995)" fill="#263357"/></g><g transform="translate(41.066 38.611)"><path d="M955.473,713.52a3.135,3.135,0,0,1,3.063-3.2l.541-.012a3.167,3.167,0,0,1,.142,6.333h0l-.541.012A3.132,3.132,0,0,1,955.473,713.52Zm3.726,2.231h0Zm-.082-3.661-.541.012a1.393,1.393,0,0,0-.9,2.4c.707.675,2.858.612,2.819-1.09A1.349,1.349,0,0,0,959.116,712.091Z" transform="translate(-955.472 -710.31)" fill="#263357"/></g><g transform="translate(41.052 33.42)"><path d="M955.418,692.737a3.135,3.135,0,0,1,3.063-3.2l.541-.012a3.167,3.167,0,0,1,.142,6.333h0l-.541.012A3.132,3.132,0,0,1,955.418,692.737Zm3.726,2.232h0Zm-.082-3.661-.541.012a1.392,1.392,0,0,0-.9,2.4c.716.684,2.857.587,2.819-1.09A1.35,1.35,0,0,0,959.061,691.307Z" transform="translate(-955.417 -689.525)" fill="#263357"/></g><g transform="translate(41.039 28.231)"><path d="M958.428,668.759l.541-.012a3.178,3.178,0,0,1,2.335,5.366,3.115,3.115,0,0,1-2.193.967h0C953.977,675.194,954.484,668.846,958.428,668.759Zm.662,5.431h0Zm-1.565-3.231a1.392,1.392,0,0,0,1.005,2.352,1.781,1.781,0,0,0,1.484-.43,1.345,1.345,0,0,0,.374-1.036C960.354,670.323,958.253,670.2,957.525,670.958Z" transform="translate(-955.365 -668.745)" fill="#263357"/></g><g transform="translate(0.419 50.245)"><path d="M810.138,775.1l1.994-1.844-13.2-14.218-4.733,4.2a.892.892,0,0,1-1.185-1.332l5.387-4.778a.893.893,0,0,1,1.247.06c15.514,16.718,14.652,15.617,14.632,16.15-.019.492-.078.428-2.933,3.069A.891.891,0,0,1,810.138,775.1Z" transform="translate(-792.707 -756.898)" fill="#263357"/></g><g transform="translate(4.601 55.943)"><path d="M811.832,782.63a1.56,1.56,0,0,1-1.613-2.67A1.56,1.56,0,0,1,811.832,782.63Z" transform="translate(-809.454 -779.715)" fill="#263357"/></g><g transform="translate(27.858 48.675)"><path d="M904.962,753.524a1.559,1.559,0,0,1-1.613-2.669A1.559,1.559,0,0,1,904.962,753.524Z" transform="translate(-902.583 -750.608)" fill="#263357"/></g><g transform="translate(0 0)"><path d="M813.3,581.92c-5.607-1.513-7.167-5.229-7.59-6.888H793.8a2.771,2.771,0,0,1-2.77-2.765v-13.8a2.771,2.771,0,0,1,2.77-2.765h25.42a2.771,2.771,0,0,1,2.77,2.765v13.8a2.771,2.771,0,0,1-2.77,2.765h-5.325c-.435.554-1.3,2.241.431,5.622A.892.892,0,0,1,813.3,581.92Zm-19.5-24.441a.985.985,0,0,0-.985.983v13.8a.985.985,0,0,0,.985.983h12.646a.892.892,0,0,1,.889.815c.016.159.4,3.592,4.6,5.486-1.252-3.882.65-6.422,1.689-6.311.151.015,5.448.01,5.6.01a.985.985,0,0,0,.985-.983v-13.8a.985.985,0,0,0-.985-.983Z" transform="translate(-791.028 -555.697)" fill="#263357"/></g><g transform="translate(27.637 24.445)"><path d="M910.522,655.367H902.58a.891.891,0,0,1,0-1.782h7.942A.891.891,0,0,1,910.522,655.367Z" transform="translate(-901.695 -653.585)" fill="#fff"/></g><g transform="translate(27.637 27.969)"><path d="M907.507,669.479H902.58a.891.891,0,0,1,0-1.782h4.927A.891.891,0,0,1,907.507,669.479Z" transform="translate(-901.695 -667.697)" fill="#fff"/></g><g transform="translate(19.694 34.137)"><path d="M880.263,694.177h-9.487a.891.891,0,0,1,0-1.782h9.487A.891.891,0,0,1,880.263,694.177Z" transform="translate(-869.891 -692.394)" fill="#263357"/></g><g transform="translate(19.694 37.661)"><path d="M875.3,708.289h-4.523a.891.891,0,0,1,0-1.782H875.3A.891.891,0,0,1,875.3,708.289Z" transform="translate(-869.891 -706.507)" fill="#263357"/></g><g transform="translate(27.092 37.661)"><path d="M902.637,708.289H900.4a.891.891,0,0,1,0-1.782h2.236A.891.891,0,0,1,902.637,708.289Z" transform="translate(-899.516 -706.507)" fill="#263357"/></g><g transform="translate(19.694 41.428)"><path d="M880.263,723.372h-9.487a.891.891,0,0,1,0-1.782h9.487A.891.891,0,0,1,880.263,723.372Z" transform="translate(-869.891 -721.59)" fill="#263357"/></g></svg>