<svg xmlns="http://www.w3.org/2000/svg" width="64.654" height="70" viewBox="0 0 64.654 70"><g transform="translate(17.893 46.45)"><path d="M1270.161,1612.245c-2.337-5.02-6.576-7.276-9.031-7.276,0,0-2.417,3.131-5.508,3.131s-5.508-3.131-5.508-3.131c-2.388,0-6.576,2.181-8.96,7.138C1241.155,1612.107,1255.625,1625.279,1270.161,1612.245Z" transform="translate(-1241.155 -1604.969)" fill="#f86464"/></g><g transform="translate(19.656 18.103)"><path d="M1249.077,1493.479a.887.887,0,0,1,0-1.773A.887.887,0,0,1,1249.077,1493.479Z" transform="translate(-1248.197 -1491.706)" fill="#61c4f2"/></g><g transform="translate(50.331 40.29)"><path d="M1371.646,1582.13a.887.887,0,0,1,0-1.773A.887.887,0,0,1,1371.646,1582.13Z" transform="translate(-1370.766 -1580.357)" fill="#f86464"/></g><g transform="translate(29.705 0.839)"><path d="M1293.48,1425.3a2.564,2.564,0,1,1-2.553-2.573A2.563,2.563,0,0,1,1293.48,1425.3Z" transform="translate(-1288.352 -1422.723)" fill="#f86464"/></g><g transform="translate(1.184 15.459)"><ellipse cx="2.563" cy="2.563" rx="2.563" ry="2.563" transform="matrix(0.715, -0.699, 0.7, 0.714, 0, 3.585)" fill="#61c4f2"/></g><g transform="translate(2.109 48.119)"><path d="M1179.38,1611.976a2.563,2.563,0,1,1-.953,3.5A2.566,2.566,0,0,1,1179.38,1611.976Z" transform="translate(-1178.088 -1611.638)" fill="#f86464"/></g><g transform="translate(29.433 64.037)"><path d="M1287.263,1677.789a2.565,2.565,0,1,1,2.553,2.573A2.564,2.564,0,0,1,1287.263,1677.789Z" transform="translate(-1287.263 -1675.238)" fill="#61c4f2"/></g><g transform="translate(56.892 48.355)"><path d="M1398.252,1617.355a2.563,2.563,0,1,1,3.507-.923A2.561,2.561,0,0,1,1398.252,1617.355Z" transform="translate(-1396.979 -1612.579)" fill="#f86464"/></g><g transform="translate(57.028 16.756)"><path d="M1401.36,1491.108a2.563,2.563,0,1,1,.954-3.5A2.566,2.566,0,0,1,1401.36,1491.108Z" transform="translate(-1397.523 -1486.321)" fill="#61c4f2"/></g><g transform="translate(43.162 18.138)"><path d="M1350.847,1511.7c-1.53-.168.055-1.9-1.072-7.063a18.863,18.863,0,0,0-7.306-11.264.84.84,0,0,1,1-1.351,20.728,20.728,0,0,1,8.307,18.936A.84.84,0,0,1,1350.847,1511.7Z" transform="translate(-1342.12 -1491.844)" fill="#f86464"/></g><g transform="translate(11.324 20.394)"><path d="M1216.266,1522.826a20.755,20.755,0,0,1,4.383-21.685.839.839,0,0,1,1.239,1.132,19.085,19.085,0,0,0-4.052,19.955A.84.84,0,0,1,1216.266,1522.826Z" transform="translate(-1214.907 -1500.857)" fill="#61c4f2"/></g><g transform="translate(0 0)"><path d="M1285.575,1575.851a4.189,4.189,0,0,0,5.292,0,.84.84,0,0,0-1-1.346,2.523,2.523,0,0,1-3.284,0A.84.84,0,0,0,1285.575,1575.851Z" transform="translate(-1256.305 -1535.546)" fill="#263357"/><path d="M1303.75,1549.195a.624.624,0,0,1,.805,0,.84.84,0,0,0,1.1-1.272c-1.573-1.354-4.042.07-3.085,1.182A.839.839,0,0,0,1303.75,1549.195Z" transform="translate(-1269.143 -1515.335)" fill="#263357"/><path d="M1278.555,1549.191c.516-.443.81.2,1.349.2a.84.84,0,0,0,.549-1.474c-1.576-1.358-4.043.075-3.083,1.184A.841.841,0,0,0,1278.555,1549.191Z" transform="translate(-1250.252 -1515.334)" fill="#263357"/><path d="M1271.116,1541.568c5.145,0,8.625-5.251,9.09-9.868.2-3.1-5.93-11.444-7.484-9.168-2.084,3.057-10.308,3.035-10.308,11.049C1262.414,1534.522,1265.041,1541.568,1271.116,1541.568Zm2.589-17.574c1.565.861,5.135,5.783,4.739,8.172-.458,2.913-2.835,7.723-7.406,7.723-3.7-.078-6.034-3.481-6.939-6.424C1264.178,1526.991,1270.843,1527.2,1273.7,1523.994Z" transform="translate(-1239.2 -1496.422)" fill="#263357"/><path d="M1293.624,1623.636h-2.229a.839.839,0,0,0,0,1.678h2.229A.839.839,0,0,0,1293.624,1623.636Z" transform="translate(-1260.303 -1572.515)" fill="#263357"/><path d="M1171.65,1542.054q.054-.612.132-1.218a.84.84,0,0,0-1.666-.214q-.083.639-.14,1.285A.84.84,0,0,0,1171.65,1542.054Z" transform="translate(-1169.894 -1509.731)" fill="#263357"/><path d="M1174.5,1585.056q-.157-.59-.292-1.19a.84.84,0,0,0-1.639.367q.142.633.308,1.254A.84.84,0,0,0,1174.5,1585.056Z" transform="translate(-1171.821 -1542.208)" fill="#263357"/><path d="M1174.65,1522.453c.771,0,.828-.716,1.063-1.491a.84.84,0,0,0-1.608-.488q-.139.456-.266.916A.84.84,0,0,0,1174.65,1522.453Z" transform="translate(-1172.771 -1494.727)" fill="#263357"/><path d="M1171.425,1563.67q-.055-.613-.086-1.223a.84.84,0,0,0-1.677.083q.032.643.09,1.289A.84.84,0,0,0,1171.425,1563.67Z" transform="translate(-1169.66 -1526.049)" fill="#263357"/><path d="M1256.043,1677.543a11.386,11.386,0,0,1-1.158-.187.839.839,0,0,0-.349,1.641,13.043,13.043,0,0,0,1.328.214A.839.839,0,0,0,1256.043,1677.543Z" transform="translate(-1232.798 -1612.773)" fill="#263357"/><path d="M1217.9,1658.1q-.49-.372-.965-.761a.84.84,0,0,0-1.065,1.3c.685.561,1.55,1.485,2.192.638A.839.839,0,0,0,1217.9,1658.1Z" transform="translate(-1204.068 -1597.631)" fill="#263357"/><path d="M1201.428,1642.248a.84.84,0,0,0-1.277,1.091c.278.324.569.649.865.966a.84.84,0,0,0,1.227-1.146C1201.963,1642.86,1201.689,1642.553,1201.428,1642.248Z" transform="translate(-1192.359 -1586.24)" fill="#263357"/><path d="M1235.909,1670.09c-.357-.172-.72-.36-1.081-.558a.839.839,0,0,0-.809,1.471,4.435,4.435,0,0,0,1.524.681A.84.84,0,0,0,1235.909,1670.09Z" transform="translate(-1217.582 -1606.838)" fill="#263357"/><path d="M1386.536,1641.551c-.24.3-.505.6-.79.906a.84.84,0,0,0,1.231,1.142c.309-.334.6-.668.864-.992A.84.84,0,0,0,1386.536,1641.551Z" transform="translate(-1331.486 -1585.705)" fill="#263357"/><path d="M1370.423,1656.43q-.48.373-.985.734a.84.84,0,0,0,.49,1.521c.415,0,.7-.291,1.524-.928A.84.84,0,0,0,1370.423,1656.43Z" transform="translate(-1319.177 -1596.959)" fill="#263357"/><path d="M1332.1,1677.416q-.581.212-1.158.4a.84.84,0,0,0,.254,1.64,9.813,9.813,0,0,0,1.482-.459A.839.839,0,0,0,1332.1,1677.416Z" transform="translate(-1290.139 -1612.79)" fill="#263357"/><path d="M1352.014,1668.335q-.539.3-1.087.581a.84.84,0,0,0,.384,1.586c.319,0,.583-.18,1.519-.7A.839.839,0,0,0,1352.014,1668.335Z" transform="translate(-1305.22 -1605.939)" fill="#263357"/><path d="M1420.835,1540.952c.045.4.082.809.108,1.216a.84.84,0,0,0,1.677-.111c-.029-.433-.068-.867-.115-1.292A.84.84,0,0,0,1420.835,1540.952Z" transform="translate(-1357.968 -1509.83)" fill="#263357"/><path d="M1415.76,1520.043c.415,1,.428,1.7,1.208,1.7a.84.84,0,0,0,.8-1.1c-.139-.435-.293-.855-.456-1.247A.84.84,0,0,0,1415.76,1520.043Z" transform="translate(-1354.113 -1493.977)" fill="#263357"/><path d="M1420.945,1562.572q-.04.618-.1,1.224a.84.84,0,0,0,1.671.172c.044-.424.08-.853.109-1.285A.84.84,0,0,0,1420.945,1562.572Z" transform="translate(-1357.974 -1526.15)" fill="#263357"/><path d="M1416.975,1583.938c-.1.4-.211.792-.327,1.167a.84.84,0,0,0,1.6.5c.126-.4.244-.827.352-1.257A.84.84,0,0,0,1416.975,1583.938Z" transform="translate(-1354.801 -1542.278)" fill="#263357"/><path d="M1332.053,1438.23q.586.183,1.163.388a.839.839,0,0,0,.563-1.581q-.608-.216-1.226-.409a.839.839,0,1,0-.5,1.6Z" transform="translate(-1290.968 -1432.281)" fill="#263357"/><path d="M1370.339,1457.96q.489.37.964.758a.839.839,0,0,0,1.065-1.3q-.5-.409-1.016-.8A.839.839,0,0,0,1370.339,1457.96Z" transform="translate(-1319.858 -1447.162)" fill="#263357"/><path d="M1352.063,1446.406q.544.281,1.076.584a.839.839,0,0,0,.833-1.457q-.562-.322-1.138-.618A.839.839,0,0,0,1352.063,1446.406Z" transform="translate(-1306.069 -1438.444)" fill="#263357"/><path d="M1244.353,1440.985q.553-.259,1.12-.5a.84.84,0,0,0-.65-1.548q-.6.251-1.183.525A.839.839,0,0,0,1244.353,1440.985Z" transform="translate(-1224.761 -1433.987)" fill="#263357"/><path d="M1209.1,1464.709q.431-.434.88-.852a.839.839,0,0,0-1.144-1.229q-.474.441-.929.9A.839.839,0,0,0,1209.1,1464.709Z" transform="translate(-1198.147 -1451.625)" fill="#263357"/><path d="M1225.627,1451.256q.5-.352,1.016-.686a.839.839,0,0,0-.912-1.409q-.544.351-1.071.723A.839.839,0,0,0,1225.627,1451.256Z" transform="translate(-1210.621 -1441.595)" fill="#263357"/><path d="M1230.156,1467.964l-3.215-1.949a24.5,24.5,0,0,0,.129-23.1l3.28-1.842a3.4,3.4,0,1,0-.845-1.45l-3.269,1.836a24.678,24.678,0,0,0-19.979-11.622l.031-3.771a3.4,3.4,0,1,0-1.68,0l-.031,3.767a24.47,24.47,0,0,0-20.044,11.438l-3.226-2.034a3.409,3.409,0,0,0-6.256-2.495c-2.026,3.47,2.719,7.035,5.467,3.982l3.161,1.993a24.62,24.62,0,0,0-1.894,4.555h0a24.57,24.57,0,0,0,1.785,18.559l-3.239,1.891a3.4,3.4,0,1,0,.815,1.469l3.252-1.9a24.663,24.663,0,0,0,19.977,11.632l-.009,3.747a3.4,3.4,0,1,0,1.68.013l.009-3.765a24.505,24.505,0,0,0,20.04-11.453l3.249,1.97a3.406,3.406,0,0,0,6.235,2.566C1237.588,1468.563,1232.922,1465,1230.156,1467.964Zm2.616-31a1.723,1.723,0,1,1-1.494,2.578A1.724,1.724,0,0,1,1232.772,1436.967Zm-53.29,2.355a1.724,1.724,0,1,1-.622-2.356h0A1.725,1.725,0,0,1,1179.483,1439.322Zm-.77,32.227a1.723,1.723,0,1,1-.859-3.219A1.727,1.727,0,0,1,1178.712,1471.549Zm26.74-50.5a1.724,1.724,0,1,1-1.225,2.936A1.722,1.722,0,0,1,1205.452,1421.05Zm-.272,66.643a1.723,1.723,0,1,1,1.224-2.936A1.723,1.723,0,0,1,1205.18,1487.693Zm-13.609-15.027c.282-.42,2.561-5.8,7.891-6.746,3.546,4,7.984,4.259,11.764,0,2.546.326,5.916,2.563,7.87,6.718A22.851,22.851,0,0,1,1191.571,1472.666Zm3.465-26.185a10.079,10.079,0,0,1,3.129-4.515c4.755-3.739,14.1-3.139,16.974,4.515,1.166,3.1-.73,4.481.925,8.4,3,7.1,1.811,7.309,1.1,8.056a7.589,7.589,0,0,1-2.955,2.209c-.817-.393-3.362-1.441-4.021-.594-.022.028-2.212,2.806-4.844,2.806s-4.822-2.778-4.843-2.8c-.636-.822-3.062.146-3.946.566a12.553,12.553,0,0,1-4.079-2.721c-1.15-1.032,1.945-6.722,2.338-7.715C1196,1451.676,1193.968,1449.319,1195.036,1446.481Zm25.394,25.071a14.619,14.619,0,0,0-4.478-5.37,16.266,16.266,0,0,0,2.868-2.539c1.762-1.58.46-5.46-1.21-9.417-1.436-3.408.439-4.774-.9-8.335-3.323-8.834-14.025-9.615-19.585-5.244a11.667,11.667,0,0,0-3.662,5.243c-1.26,3.349.73,5.792-.212,8.172-.832,2.1-4.229,7.484-1.837,9.636a17.916,17.916,0,0,0,3.344,2.48,14.737,14.737,0,0,0-4.52,5.423c-14.133-12.291-8.035-35.614,10.2-39.585a22.886,22.886,0,0,1,19.992,39.537Zm13.7-.4a1.728,1.728,0,0,1-2.359.621h0a1.724,1.724,0,1,1,2.359-.621Z" transform="translate(-1173.231 -1419.372)" fill="#263357"/></g></svg>