<svg xmlns="http://www.w3.org/2000/svg" width="71.765" height="70" viewBox="0 0 71.765 70"><ellipse cx="0.935" cy="0.937" rx="0.935" ry="0.937" transform="translate(49.343 0)" fill="#263357"/><path d="M291.67,618.052a2.005,2.005,0,0,1-.125-.677,2.034,2.034,0,0,1,2.026-2.029,4.049,4.049,0,0,1,7.977-.994,3.242,3.242,0,0,1,2.818-.071,3.373,3.373,0,0,1,1.906,2.15,3.41,3.41,0,0,1,.064,1.621Z" transform="translate(-287.581 -600.482)" fill="#61c4f2"/><path d="M342.786,628.945,318.08,650.152h50.588Zm-2.941,14.728a2.945,2.945,0,1,1,2.941-2.946A2.943,2.943,0,0,1,339.844,643.672Z" transform="translate(-307.491 -613.73)" fill="#f86464"/><rect width="13.529" height="13.549" transform="translate(15.882 46.436)" fill="#f86464"/><path d="M506.571,778.5h10.871a10,10,0,0,0-5.82-13.574,6.46,6.46,0,0,0-5.051-8.111Z" transform="translate(-448.924 -709.674)" fill="#61c4f2"/><g transform="translate(0 68.233)"><path d="M346.552,843.074h-70a.884.884,0,0,1,0-1.767h70a.884.884,0,0,1,0,1.767Z" transform="translate(-275.669 -841.306)" fill="#263357"/></g><g transform="translate(56.471 36.421)"><path d="M502.741,746.289a.883.883,0,0,1-.882-.884V714.772a.882.882,0,1,1,1.765,0V745.4A.883.883,0,0,1,502.741,746.289Z" transform="translate(-501.859 -713.888)" fill="#263357"/></g><g transform="translate(6.471 36.421)"><path d="M302.469,746.878a.883.883,0,0,1-.882-.884V714.772a.882.882,0,1,1,1.765,0v31.222A.883.883,0,0,1,302.469,746.878Z" transform="translate(-301.587 -713.888)" fill="#263357"/></g><g transform="translate(15.294 45.258)"><path d="M350.752,764.6H337.811a.883.883,0,0,1-.882-.884V750.166a.883.883,0,0,1,.882-.884h12.941a.883.883,0,0,1,.882.884v13.549A.883.883,0,0,1,350.752,764.6Zm-12.059-1.767H349.87V751.049H338.694Z" transform="translate(-336.929 -749.282)" fill="#263357"/></g><g transform="translate(37.059 45.258)"><path d="M437.342,772.846a.883.883,0,0,1-.882-.884V751.049H425.871v20.913a.882.882,0,1,1-1.765,0v-21.8a.883.883,0,0,1,.882-.884h12.353a.883.883,0,0,1,.882.884v21.8A.883.883,0,0,1,437.342,772.846Z" transform="translate(-424.106 -749.282)" fill="#263357"/></g><g transform="translate(21.765 45.847)"><path d="M363.729,765.191a.883.883,0,0,1-.882-.884V752.525a.882.882,0,1,1,1.765,0v11.782A.883.883,0,0,1,363.729,765.191Z" transform="translate(-362.846 -751.642)" fill="#263357"/></g><g transform="translate(22.353 52.327)"><path d="M370.791,779.365h-4.706a.884.884,0,0,1,0-1.767h4.706a.884.884,0,0,1,0,1.767Z" transform="translate(-365.203 -777.597)" fill="#263357"/></g><g transform="translate(2.647 11.679)"><path d="M345.978,640.706H301.566a.884.884,0,0,1,0-1.767h41.906l-27.483-22.127-26.405,22.127h7.277a.884.884,0,0,1,0,1.767h-9.706a.884.884,0,0,1-.566-1.561l28.824-24.153a.882.882,0,0,1,1.119-.011l30,24.153a.884.884,0,0,1-.552,1.572Z" transform="translate(-286.272 -614.786)" fill="#263357"/></g><g transform="translate(44.706 15.214)"><path d="M461.5,641.9a.883.883,0,0,1-.882-.884V630.71H456.5v5.6a.882.882,0,1,1-1.765,0v-6.48a.883.883,0,0,1,.882-.884H461.5a.883.883,0,0,1,.882.884v11.193A.883.883,0,0,1,461.5,641.9Z" transform="translate(-454.736 -628.942)" fill="#263357"/></g><g transform="translate(38.235 56.451)"><path d="M430.877,795.882H429.7a.884.884,0,0,1,0-1.767h1.176a.884.884,0,0,1,0,1.767Z" transform="translate(-428.818 -794.114)" fill="#263357"/></g><g transform="translate(28.235 22.872)"><path d="M392.882,667.865A4.124,4.124,0,1,1,397,663.741,4.126,4.126,0,0,1,392.882,667.865Zm0-6.48a2.356,2.356,0,1,0,2.353,2.356A2.357,2.357,0,0,0,392.882,661.384Z" transform="translate(-388.764 -659.617)" fill="#263357"/></g><g transform="translate(45.294 6.377)"><path d="M457.975,599.439a.883.883,0,0,1-.882-.884v-4.124a.882.882,0,1,1,1.765,0v4.124A.883.883,0,0,1,457.975,599.439Z" transform="translate(-457.092 -593.548)" fill="#263357"/></g><g transform="translate(49.412 3.432)"><path d="M474.468,590.587a.883.883,0,0,1-.882-.884v-7.069a.882.882,0,1,1,1.765,0V589.7A.883.883,0,0,1,474.468,590.587Z" transform="translate(-473.585 -581.75)" fill="#263357"/></g></svg>