<svg xmlns="http://www.w3.org/2000/svg" width="30" height="30" viewBox="0 0 30 30"><g transform="translate(-6977 -326.903)"><circle cx="15" cy="15" r="15" transform="translate(6977 326.903)" fill="#fff"/><path d="M38,23A15,15,0,1,1,23,8,15,15,0,0,1,38,23ZM23,26.024a2.782,2.782,0,1,0,2.782,2.782A2.782,2.782,0,0,0,23,26.024Zm-2.642-10,.449,8.226a.726.726,0,0,0,.725.686h2.936a.726.726,0,0,0,.725-.686l.449-8.226a.726.726,0,0,0-.725-.765H21.083a.726.726,0,0,0-.725.765Z" transform="translate(6969 318.903)" fill="#d00000"/></g></svg>